<svg width="141" height="28" viewBox="0 0 141 28" fill="none" xmlns="http://www.w3.org/2000/svg">
<path d="M66.2753 1.67456V5.74932H66.6742V3.75846C66.6742 3.48867 66.6927 3.2933 66.7298 3.16306C66.7576 3.04212 66.8133 2.90257 66.8782 2.77233C66.9617 2.56766 67.1008 2.37229 67.277 2.19553C67.4532 2.00947 67.6665 1.92574 67.917 1.91644C68.3065 1.91644 68.5569 2.03738 68.696 2.28856C68.8352 2.53975 68.9001 2.87466 68.9001 3.3026V5.74002H69.2989V3.07933C69.2989 2.55835 69.1876 2.16762 68.965 1.91644C68.7424 1.65595 68.3992 1.54432 67.9355 1.57223C67.6665 1.58153 67.4254 1.66526 67.2028 1.7955C66.9802 1.91644 66.7947 2.14902 66.6278 2.49323V1.67456H66.2753ZM63.4929 1.93505C63.6784 1.93505 63.8454 1.98156 64.0031 2.07459C64.1607 2.16762 64.3091 2.27926 64.4297 2.43741C64.5503 2.59557 64.6523 2.79093 64.7265 3.01421C64.7914 3.23748 64.8285 3.47936 64.8285 3.74915C64.8285 4.01894 64.7914 4.26082 64.7265 4.4841C64.6616 4.70737 64.5688 4.89343 64.4482 5.05159C64.3369 5.20974 64.1793 5.33068 64.0123 5.41441C63.8454 5.49814 63.6599 5.53535 63.4558 5.53535C63.2518 5.53535 63.057 5.48883 62.8901 5.40511C62.7232 5.32138 62.584 5.20044 62.4635 5.04228C62.3522 4.88413 62.2501 4.69807 62.1852 4.47479C62.1203 4.25152 62.0925 4.00034 62.0925 3.73055C62.0925 3.46076 62.1203 3.22818 62.1852 2.9956C62.2501 2.77233 62.3429 2.58626 62.4727 2.42811C62.5933 2.26996 62.751 2.13971 62.9179 2.05599C63.0849 1.96296 63.2796 1.92574 63.4929 1.92574M63.4929 1.56292C63.224 1.56292 62.9828 1.61874 62.751 1.71177C62.5284 1.8048 62.3429 1.95365 62.1852 2.13971C62.0275 2.32578 61.8977 2.56766 61.8142 2.83745C61.7308 3.10724 61.6844 3.41424 61.6844 3.75846C61.6844 4.42828 61.8421 4.95856 62.1667 5.33998C62.482 5.72141 62.9179 5.91678 63.4744 5.91678C63.7434 5.91678 63.9845 5.86096 64.2071 5.75862C64.4297 5.65629 64.6152 5.49814 64.7729 5.30277C64.9305 5.10741 65.0418 4.88413 65.1346 4.61434C65.218 4.35385 65.2551 4.06546 65.2551 3.75846C65.2551 3.41424 65.2088 3.10724 65.1067 2.83745C65.014 2.56766 64.8841 2.33508 64.7265 2.15832C64.5688 1.97226 64.374 1.83271 64.1607 1.73038C63.9474 1.63735 63.7341 1.57223 63.4929 1.57223M60.219 5.74932H60.6178V1.13498H60.219V5.74002V5.74932ZM60.219 0.455852H60.6178V0.00930311H60.219V0.446549V0.455852ZM58.8 5.54465C58.6516 5.54465 58.5403 5.52605 58.4661 5.50744C58.3919 5.48883 58.3455 5.44232 58.3084 5.3865C58.2713 5.33068 58.262 5.24695 58.262 5.15392C58.262 5.06089 58.262 4.93065 58.262 4.7818V2.1025H59.0504V1.73968H58.262V0.465155H57.8632V1.74898H57.1954V2.11181H57.8632V5.0888C57.8632 5.3958 57.9281 5.60977 58.058 5.72141C58.1786 5.83305 58.3826 5.89817 58.6608 5.90747C58.7629 5.90747 58.8463 5.90747 58.8927 5.90747C58.9391 5.90747 58.9947 5.88887 59.0411 5.88887V5.53535H58.8185L58.8 5.54465ZM56.0639 4.30734C56.0639 4.46549 56.0639 4.59574 56.0454 4.69807C56.0268 4.7911 55.9897 4.88413 55.9434 4.98647C55.8042 5.17253 55.6188 5.31207 55.4054 5.41441C55.1921 5.49814 54.9602 5.56326 54.7191 5.60047C54.5614 5.61908 54.4223 5.61908 54.311 5.58186C54.1997 5.54465 54.107 5.48883 54.0421 5.40511C53.9771 5.32138 53.9308 5.21904 53.8937 5.11671C53.8658 5.00507 53.8473 4.88413 53.8473 4.76319C53.8473 4.4841 53.94 4.27943 54.1348 4.14919C54.3203 4.01894 54.6264 3.91661 55.053 3.85149C55.3034 3.81427 55.5075 3.76776 55.6558 3.71194C55.8135 3.65612 55.9434 3.55379 56.0547 3.42354V4.31664L56.0639 4.30734ZM56.8801 5.46092C56.7224 5.46092 56.6204 5.41441 56.5648 5.33998C56.5091 5.25626 56.472 5.13532 56.472 4.97716V2.93978C56.472 2.65139 56.4442 2.43741 56.3885 2.29787C56.3422 2.15832 56.268 2.03738 56.1752 1.93505C56.0454 1.81411 55.8877 1.72107 55.7022 1.65595C55.5167 1.59083 55.3034 1.56292 55.0715 1.56292C54.5893 1.56292 54.2276 1.68386 53.9679 1.90714C53.7082 2.13041 53.5783 2.43741 53.569 2.81884H53.9864C54.0328 2.53975 54.1441 2.31647 54.311 2.16762C54.478 2.00947 54.7284 1.94435 55.0623 1.93505C55.3683 1.93505 55.6095 2.00017 55.795 2.13971C55.9712 2.27926 56.0547 2.50254 56.0547 2.79093C56.0547 2.94909 55.9805 3.09793 55.8228 3.22818C55.6744 3.34912 55.4796 3.42354 55.2478 3.45145L54.682 3.54448C54.58 3.56309 54.478 3.591 54.3759 3.61891C54.2739 3.63752 54.1812 3.66542 54.0977 3.69333C53.8658 3.77706 53.6989 3.91661 53.5783 4.09337C53.4578 4.27943 53.4021 4.5027 53.4021 4.7818C53.4021 5.14462 53.5041 5.41441 53.6989 5.60977C53.8937 5.79584 54.1719 5.89817 54.5429 5.89817C54.8119 5.89817 55.0808 5.85165 55.3591 5.76793C55.628 5.6842 55.8692 5.50744 56.0825 5.26556C56.0825 5.3865 56.1381 5.49814 56.2216 5.60047C56.3051 5.70281 56.4071 5.75862 56.5462 5.78653C56.5926 5.78653 56.639 5.80514 56.7039 5.80514C56.7595 5.80514 56.8152 5.80514 56.8801 5.80514V5.42371V5.46092ZM50.3322 1.70247H49.887L51.2875 5.76793H51.779L53.1424 1.70247H52.7436L51.5564 5.41441C51.4915 5.20044 51.4359 5.02368 51.3802 4.87483C51.3339 4.72598 51.2968 4.59574 51.2504 4.4841C51.204 4.36316 51.1669 4.25152 51.1391 4.14919C51.102 4.04685 51.0834 3.92591 51.0371 3.80497L50.3507 1.71177L50.3322 1.70247ZM47.7817 1.95365C47.9671 1.95365 48.1341 2.00017 48.2918 2.0932C48.4494 2.18623 48.5978 2.29787 48.7184 2.45602C48.839 2.61417 48.941 2.80954 49.0152 3.03281C49.0801 3.25609 49.1172 3.49797 49.1172 3.76776C49.1172 4.03755 49.0801 4.27943 49.0152 4.5027C48.9503 4.72598 48.8575 4.91204 48.7369 5.07019C48.6164 5.22835 48.468 5.34929 48.301 5.43302C48.1341 5.51674 47.9486 5.55396 47.7446 5.55396C47.5405 5.55396 47.3457 5.50744 47.1788 5.42371C47.0119 5.33998 46.8727 5.21904 46.7522 5.06089C46.6316 4.90274 46.5388 4.71668 46.4739 4.4934C46.409 4.27013 46.3812 4.01894 46.3812 3.74915C46.3812 3.47936 46.409 3.24678 46.4739 3.01421C46.5388 2.79093 46.6316 2.60487 46.7614 2.44672C46.882 2.28856 47.0397 2.15832 47.2066 2.07459C47.3736 1.98156 47.5683 1.94435 47.7724 1.94435M47.7724 1.58153C47.5034 1.58153 47.2623 1.63735 47.0397 1.73038C46.8171 1.82341 46.6316 1.97226 46.4647 2.15832C46.307 2.34438 46.1771 2.58626 46.0937 2.85605C46.0009 3.12584 45.9638 3.43285 45.9638 3.77706C45.9638 4.44689 46.1215 4.97716 46.4461 5.35859C46.7614 5.74002 47.1974 5.93538 47.7538 5.93538C48.0228 5.93538 48.2639 5.87956 48.4865 5.77723C48.6998 5.6749 48.8946 5.51674 49.0523 5.32138C49.21 5.12601 49.3213 4.90274 49.414 4.63295C49.4975 4.37246 49.5346 4.08406 49.5346 3.77706C49.5346 3.43285 49.4789 3.12584 49.3862 2.85605C49.2934 2.58626 49.1636 2.35369 49.0059 2.17693C48.8482 1.99086 48.6535 1.85132 48.4402 1.74898C48.2268 1.65595 48.0042 1.59083 47.7724 1.59083M41.9201 1.70247V5.74932H42.3189V3.75846C42.3189 3.48867 42.3374 3.2933 42.3745 3.16306C42.4023 3.04212 42.4673 2.90257 42.5229 2.77233C42.6064 2.56766 42.7455 2.37229 42.9217 2.19553C43.0979 2.00947 43.3113 1.92574 43.5617 1.91644C43.9512 1.91644 44.2016 2.03738 44.3408 2.28856C44.4799 2.53975 44.5448 2.87466 44.5448 3.3026V5.74002H44.9436V3.07933C44.9436 2.55835 44.8323 2.16762 44.6097 1.91644C44.3871 1.65595 44.044 1.54432 43.5802 1.57223C43.3113 1.58153 43.0701 1.66526 42.8475 1.7955C42.6249 1.91644 42.4394 2.14902 42.2725 2.49323V1.67456H41.9201V1.70247ZM37.6352 1.70247V5.74932H38.034V3.75846C38.034 3.48867 38.0525 3.2933 38.0896 3.16306C38.1175 3.04212 38.1824 2.90257 38.238 2.77233C38.3215 2.56766 38.4606 2.37229 38.6368 2.19553C38.813 2.00947 39.0264 1.92574 39.2768 1.91644C39.6663 1.91644 39.9167 2.03738 40.0559 2.28856C40.195 2.53975 40.2599 2.87466 40.2599 3.3026V5.74002H40.6587V3.07933C40.6587 2.55835 40.5474 2.16762 40.3341 1.91644C40.1115 1.65595 39.7683 1.54432 39.3046 1.57223C39.0356 1.58153 38.7945 1.66526 38.5719 1.7955C38.3493 1.91644 38.1638 2.14902 37.9969 2.49323V1.67456H37.6444L37.6352 1.70247ZM35.9286 5.76793H36.3274V1.13498H35.9286V5.74002V5.76793ZM35.9286 0.474458H36.3274V0.0279093H35.9286V0.446549V0.474458ZM32.5434 1.65595L31.7829 4.05616L31.3098 5.36789L30.911 4.11197L30.0763 1.64665H29.6126L31.1336 5.80514C30.9852 6.2796 30.8554 6.61451 30.7348 6.80988C30.6235 7.00524 30.4658 7.09827 30.2711 7.09827H30.1041C30.1041 7.09827 30.0392 7.09827 29.9928 7.09827L29.9557 7.07967V7.41458C30.0021 7.43318 30.0578 7.43318 30.1134 7.44249C30.1691 7.44249 30.2247 7.44249 30.2804 7.44249C30.438 7.44249 30.5771 7.39597 30.6884 7.32155C30.7997 7.25642 30.911 7.14479 31.0316 7.00524C31.0594 6.94942 31.0873 6.8843 31.1151 6.81918C31.1429 6.76336 31.18 6.68893 31.2171 6.5959C31.2635 6.50287 31.3098 6.37263 31.3655 6.22378C31.4119 6.06563 31.4861 5.87956 31.5695 5.63768L32.97 1.61874H32.5434V1.65595ZM28.5738 5.56326C28.4254 5.56326 28.3141 5.54465 28.2399 5.52605C28.1657 5.50744 28.1194 5.46092 28.0823 5.40511C28.0452 5.34929 28.0359 5.26556 28.0359 5.17253C28.0359 5.0795 28.0359 4.94925 28.0359 4.8004V2.1025H28.8242V1.73968H28.0359V0.465155H27.6371V1.74898H26.9693V2.11181H27.6371V5.0888C27.6371 5.3958 27.702 5.60977 27.8318 5.72141C27.9524 5.83305 28.1565 5.89817 28.4347 5.90747C28.5367 5.90747 28.6202 5.90747 28.6666 5.90747C28.7129 5.90747 28.7686 5.88887 28.815 5.88887V5.53535H28.5924L28.5738 5.56326ZM25.8378 5.77723H26.2366V1.13498H25.8378V5.74002V5.77723ZM25.8378 0.483762H26.2366V0.0372124H25.8378V0.446549V0.483762ZM24.6599 2.74442C24.6321 2.37229 24.5022 2.0839 24.2611 1.88853C24.0292 1.69317 23.6768 1.59083 23.2131 1.59083C22.7771 1.59083 22.4433 1.69317 22.2021 1.89783C21.961 2.0932 21.8404 2.3816 21.8404 2.74442C21.8404 2.93048 21.8775 3.07933 21.961 3.20957C22.0352 3.33051 22.1372 3.42354 22.2763 3.48867C22.3227 3.52588 22.3691 3.55379 22.4062 3.57239C22.4433 3.591 22.4989 3.61891 22.5731 3.64682C22.638 3.67473 22.7308 3.71194 22.8606 3.74915C22.9719 3.78637 23.1389 3.84218 23.3336 3.898C23.7324 4.01894 24.0014 4.13988 24.1683 4.25152C24.326 4.36316 24.4095 4.52131 24.4095 4.73528C24.4095 4.97716 24.3075 5.17253 24.0941 5.33068C23.8808 5.48883 23.6304 5.56326 23.3151 5.56326C22.9626 5.56326 22.6844 5.48883 22.4804 5.34929C22.2763 5.20974 22.1836 4.97716 22.2021 4.65155H21.7477C21.7477 5.0888 21.8775 5.40511 22.1372 5.61908C22.3969 5.83305 22.7771 5.93538 23.278 5.93538C23.7788 5.93538 24.1405 5.82375 24.4095 5.60047C24.6785 5.3772 24.8083 5.06089 24.8083 4.65155C24.8083 4.5027 24.7619 4.36316 24.6877 4.23291C24.6043 4.12128 24.5022 4.00964 24.3724 3.91661C24.2425 3.82358 24.0849 3.73985 23.9087 3.67473C23.7324 3.60961 23.5469 3.54448 23.3615 3.48867C23.1389 3.42354 22.9441 3.35842 22.7957 3.3026C22.6473 3.25609 22.5267 3.20027 22.4525 3.14445C22.3691 3.08863 22.3134 3.02351 22.2763 2.94909C22.2485 2.88396 22.2299 2.79093 22.2299 2.6793C22.2299 2.47463 22.3134 2.30717 22.4896 2.17693C22.6658 2.04668 22.8884 1.98156 23.176 1.98156C23.5469 1.98156 23.8066 2.05599 23.9458 2.19553C24.0849 2.33508 24.1683 2.52114 24.1776 2.76302H24.6228L24.6599 2.74442ZM21.488 1.56292C21.3488 1.56292 21.219 1.59083 21.0984 1.62804C20.9779 1.66526 20.8573 1.73968 20.7367 1.83271C20.6161 1.92574 20.4956 2.06529 20.375 2.23275C20.2544 2.4002 20.1431 2.61417 20.0133 2.87466V1.67456H19.6516V5.74932H20.0504V3.79567C20.0504 3.53518 20.0968 3.32121 20.171 3.14445C20.2452 2.97699 20.3565 2.78163 20.4956 2.58626C20.5883 2.45602 20.7182 2.32578 20.8758 2.20484C21.0335 2.0839 21.2005 2.02808 21.3859 2.02808H21.4138C21.4138 2.02808 21.4416 2.04668 21.4694 2.04668V1.52571L21.488 1.56292ZM16.9712 1.96296C17.3144 1.96296 17.6112 2.0932 17.8337 2.35369C18.0563 2.61417 18.1862 2.9863 18.2326 3.46076H15.6913C15.7469 2.95839 15.8861 2.58626 16.1087 2.33508C16.3405 2.0839 16.6188 1.96296 16.9712 1.96296ZM18.1955 4.64225C18.1305 4.93995 17.9914 5.16322 17.7966 5.32138C17.6019 5.47953 17.3515 5.56326 17.0547 5.56326C16.628 5.56326 16.2942 5.41441 16.0437 5.13532C15.8026 4.84692 15.682 4.41898 15.7006 3.83288H18.6499C18.6499 3.61891 18.6314 3.41424 18.6035 3.22818C18.585 3.04212 18.5479 2.86536 18.4923 2.7072C18.3624 2.34438 18.1584 2.07459 17.8987 1.88853C17.639 1.70247 17.3329 1.60013 16.9898 1.60013C16.7208 1.60013 16.4889 1.65595 16.2849 1.75829C16.0716 1.86062 15.8953 2.00947 15.7469 2.20484C15.5893 2.4002 15.478 2.63278 15.3945 2.90257C15.311 3.17236 15.2739 3.47006 15.2739 3.78637C15.2739 4.47479 15.4316 5.01438 15.7377 5.3865C16.0345 5.75862 16.4611 5.94469 17.0083 5.94469C17.4628 5.94469 17.8152 5.82375 18.0842 5.60047C18.3439 5.3772 18.5108 5.06089 18.6035 4.64225H18.2047H18.1955ZM12.1298 1.67456H11.6846L13.0758 5.74002H13.5674L14.9308 1.67456H14.532L13.3448 5.3865C13.2799 5.17253 13.2242 4.99577 13.1686 4.84692C13.1129 4.69807 13.0758 4.56783 13.0387 4.45619C12.9924 4.33525 12.9553 4.22361 12.9274 4.12128C12.8903 4.01894 12.8718 3.898 12.8254 3.77706L12.1391 1.68386L12.1298 1.67456ZM10.4882 5.74002H10.887V1.13498H10.4882V5.74002ZM10.4882 0.446549H10.887V0H10.4882V0.446549ZM6.20331 1.67456V5.74932H6.60212V3.75846C6.60212 3.48867 6.62067 3.2933 6.65777 3.16306C6.6856 3.04212 6.74124 2.90257 6.80617 2.77233C6.89891 2.56766 7.02876 2.37229 7.20498 2.19553C7.3812 2.00947 7.59451 1.92574 7.84493 1.91644C8.23446 1.91644 8.48488 2.03738 8.624 2.28856C8.76312 2.53975 8.82804 2.87466 8.82804 3.3026V5.74002H9.21758V3.07933C9.21758 2.55835 9.10628 2.16762 8.89297 1.91644C8.67037 1.65595 8.32721 1.54432 7.86348 1.57223C7.59451 1.58153 7.35337 1.66526 7.13078 1.7955C6.90819 1.91644 6.72269 2.14902 6.55575 2.49323V1.67456H6.20331ZM1.33411 0.0372124H0.926025V3.41424C0.926025 3.83288 0.944575 4.14919 0.990948 4.39107C1.03732 4.61434 1.11152 4.81901 1.21354 4.99577C1.38048 5.31207 1.60308 5.55396 1.89059 5.6935C2.17811 5.83305 2.54909 5.89817 3.00355 5.89817C3.41164 5.89817 3.7548 5.84235 4.04231 5.73071C4.32055 5.62838 4.55242 5.44232 4.72864 5.17253C4.79356 5.0795 4.83994 4.95856 4.87703 4.84692C4.92341 4.73528 4.96051 4.62364 4.98833 4.4841C5.01615 4.34455 5.0347 4.1864 5.05325 4.01894C5.05325 3.85149 5.0718 3.64682 5.0718 3.41424V0.0372124H4.66372V3.43285C4.66372 3.62821 4.66372 3.79567 4.64517 3.93521C4.64517 4.07476 4.62662 4.1864 4.60807 4.29804C4.58952 4.40967 4.57097 4.5027 4.54315 4.59574C4.51532 4.67946 4.4875 4.75389 4.44113 4.83762C4.32055 5.06089 4.13506 5.22835 3.89392 5.33998C3.65278 5.45162 3.34671 5.49814 2.985 5.49814C2.65111 5.49814 2.3636 5.43301 2.10391 5.30277C1.84422 5.18183 1.668 5.00507 1.54743 4.7818C1.45468 4.61434 1.38976 4.41898 1.36193 4.21431C1.34339 4.00964 1.32484 3.74915 1.32484 3.42354V0.0372124H1.33411Z" fill="#292926"/>
<path d="M130.994 23.5276H137.041V25.4347H130.994V23.5276ZM128.063 19.8808V25.1742C128.063 26.272 128.889 27.0442 130.122 27.0442H139.963V19.8901H137.032V21.9461H130.985V19.8901H128.054L128.063 19.8808ZM129.816 11.4614C130.948 11.4614 131.875 12.6802 131.875 14.2431C131.875 15.806 130.92 17.0247 129.816 17.0247C128.712 17.0247 127.776 15.7967 127.776 14.2431C127.776 12.6895 128.731 11.4614 129.816 11.4614ZM137.236 9.86132V13.2383H134.695C134.175 11.294 132.2 9.86132 129.816 9.86132C127.08 9.86132 124.854 11.815 124.854 14.2152C124.854 16.6154 127.089 18.569 129.816 18.569C132.357 18.569 134.416 16.9317 134.76 14.8106H137.236V18.7551H140.167V9.86132H137.236ZM121.497 9.86132H118.566V27.0349H121.497V15.5455H124.428V13.9733H121.497V9.87062V9.86132ZM110.349 9.87992V13.1732C110.349 16.4479 108.206 19.0249 105.841 19.4528L107.269 20.6529C109.18 20.4855 111.415 18.8295 111.842 17.248C112.296 18.8202 114.531 20.5041 116.414 20.6529L117.843 19.4528C115.478 19.0156 113.317 16.4665 113.317 13.1732V9.87992H110.349ZM94.693 11.294C95.5555 11.294 96.2789 12.1685 96.2789 13.3221C96.2789 14.4757 95.5648 15.3595 94.693 15.3595C93.8211 15.3595 93.0884 14.485 93.0884 13.3221C93.0884 12.1592 93.8026 11.294 94.693 11.294ZM94.693 9.77759C92.2166 9.77759 90.2689 11.3777 90.2689 13.3221C90.2689 15.2664 92.2166 16.8479 94.693 16.8479C97.1693 16.8479 99.0984 15.2943 99.0984 13.3221C99.0984 11.3498 97.1415 9.77759 94.693 9.77759ZM89.2116 17.4527V18.9411H93.1997V21.4716H96.1305V18.9411H100.619V17.4527H89.2116ZM101.899 9.86132V19.9645H97.9484V21.3507H101.899V22.9229H104.83V9.86132H101.899ZM95.3978 22.3275H92.467V25.1649C92.467 26.3278 93.3389 27.0349 94.5075 27.0349H105.433V25.4347H95.3978V22.3275ZM72.4709 11.4428H75.8561V13.1267C75.8561 16.3828 73.7137 18.9505 71.3301 19.3877L72.7769 20.5878C74.669 20.4203 76.9227 18.7644 77.3493 17.2108C77.8038 18.7644 80.039 20.4483 81.9217 20.5878L83.35 19.3877C80.985 18.9505 78.8147 16.4014 78.8147 13.1267V11.4428H82.2185V9.87062H72.4616V11.4428H72.4709ZM87.1898 9.86132H84.259V27.0349H87.1898V9.86132Z" fill="#292926"/>
<path d="M69.0857 9.8336H66.1641V22.523H69.0857V9.8336ZM59.4493 20.9043H56.5278V25.1372C56.5278 26.3001 57.3718 27.0071 58.5404 27.0071H69.1135V25.407H59.4493V20.9043ZM57.2883 9.86151V12.6431C57.2883 15.7783 55.1458 17.9552 52.7622 18.3832L54.2091 19.5647C56.0084 19.3786 58.2992 17.8808 58.7537 16.4109C59.2731 17.8808 61.5083 19.3972 63.3446 19.5647L64.7544 18.3832C62.4172 17.9459 60.2469 15.8155 60.2469 12.6431V9.86151H57.279H57.2883ZM41.2802 13.5641C42.2077 13.5641 42.996 14.6433 42.996 15.9271C42.996 17.211 42.2169 18.3087 41.2802 18.3087C40.3435 18.3087 39.5737 17.2296 39.5737 15.9271C39.5737 14.6247 40.3713 13.5641 41.2802 13.5641ZM48.3661 17.0249H45.5929C45.7042 16.6714 45.7691 16.2993 45.7691 15.9271C45.7691 15.7411 45.7506 15.5736 45.7228 15.3876H48.3661V17.0249ZM46.4555 13.1269V11.5919H42.7549V9.85221H39.8334V11.5919H36.1328V13.1269H38.2752C37.3663 13.8339 36.8005 14.8294 36.8005 15.9271C36.8005 18.0389 38.8317 19.7879 41.2802 19.7879C42.5601 19.7879 43.7287 19.3135 44.5263 18.5599H48.3568V19.8065H51.2783V9.81499H48.3568V13.8618H44.9993C44.8046 13.5921 44.5634 13.3409 44.3037 13.1362H46.4462L46.4555 13.1269ZM48.3661 26.9792H51.2876V20.9229H38.2288V22.4951H48.3661V26.9792ZM23.074 13.5641C24.0015 13.5641 24.7806 14.6433 24.7806 15.9271C24.7806 17.211 24.0015 18.3087 23.074 18.3087C22.1466 18.3087 21.3582 17.2296 21.3582 15.9271C21.3582 14.6247 22.1558 13.5641 23.074 13.5641ZM28.2307 13.1269V11.5919H24.5302V9.81499H21.6086V11.5919H17.908V13.1269H20.0505C19.1601 13.8339 18.6036 14.8294 18.6036 15.9271C18.6036 18.0389 20.6441 19.7879 23.0833 19.7879C25.5225 19.7879 27.563 18.0482 27.563 15.9271C27.563 14.8294 26.9972 13.8339 26.0883 13.1269H28.2307ZM32.6919 9.80569H29.7703V19.7786H32.6919V14.9224H35.6134V13.3223H32.6919V9.79639V9.80569ZM29.7703 26.9792H32.6919V20.9229H19.8279V22.4951H29.7703V26.9792ZM11.6013 26.9978V16.0667H13.3356V26.9978H16.1088V9.8336H13.3356V14.5038H11.6013V9.8336H8.82814V19.667C8.37368 19.853 7.64098 20.0391 6.63932 20.0391H3.70852V11.4337H7.34419V9.8336H0.833374V19.8065C0.833374 20.9322 1.61245 21.6299 2.84598 21.6299H6.52802C7.58533 21.6299 8.32731 21.3602 8.81886 21.0252V26.9885H11.592L11.6013 26.9978Z" fill="#292926"/>
</svg>
