<svg width="134" height="41" viewBox="0 0 134 41" fill="none" xmlns="http://www.w3.org/2000/svg">
<path d="M63.0023 17.8698H64.2975L66.3146 22.0155V17.8698H67.3338V23.4187H66.0386L64.0215 19.2729V23.4187H63.0023V17.8698Z" fill="#292926"/>
<path d="M69.0536 22.2282C69.0536 21.5904 69.7331 21.5266 70.1789 21.5266H70.6248C70.6248 21.8455 70.5824 22.1432 70.4125 22.377C70.2639 22.6109 70.0091 22.7384 69.7118 22.7384C69.3509 22.7384 69.0748 22.5896 69.0748 22.2282H69.0536ZM68.544 20.4423C68.8837 20.1659 69.3084 19.9959 69.7543 19.9959C70.3488 19.9959 70.6248 20.2297 70.6248 20.8675H70.0728C69.6481 20.8675 69.1598 20.9101 68.7564 21.1014C68.3742 21.2927 68.0981 21.6542 68.0981 22.2707C68.0981 23.0573 68.7776 23.4826 69.457 23.4826C69.9241 23.4826 70.4337 23.2274 70.6461 22.781C70.6461 22.9085 70.6461 23.1849 70.6885 23.3975H71.5803C71.5591 23.0786 71.5378 22.8022 71.5378 22.4833C71.5378 22.1857 71.5378 21.8668 71.5378 21.4628V20.9313C71.5378 19.7195 71.0495 19.2092 69.8604 19.2092C69.4358 19.2092 68.905 19.3368 68.5016 19.5281V20.4423H68.544Z" fill="#292926"/>
<path d="M72.7905 20.102H72.0474V19.3154H72.7905V18.5075L73.8097 18.1674V19.3154H74.7014V20.102H73.8097V22.0155C73.8097 22.3556 73.8946 22.6958 74.2768 22.6958C74.4679 22.6958 74.6377 22.6533 74.7439 22.5895V23.4399C74.574 23.5037 74.3192 23.525 74.022 23.525C73.2364 23.525 72.7905 23.0147 72.7905 22.2068V20.1233V20.102Z" fill="#292926"/>
<path d="M75.3596 19.3154H76.3788V23.4186H75.3596V19.3154ZM75.3596 17.5508H76.3788V18.5713H75.3596V17.5508Z" fill="#292926"/>
<path d="M78.1623 21.2715C78.1623 20.6549 78.4808 20.0596 79.139 20.0596C79.7972 20.0596 80.1157 20.6549 80.1157 21.2715C80.1157 21.9518 79.9034 22.6959 79.139 22.6959C78.3747 22.6959 78.1623 21.9518 78.1623 21.2715ZM77.1007 21.399C77.1007 22.5683 77.8439 23.5251 79.139 23.5251C80.4342 23.5251 81.1774 22.5896 81.1774 21.399C81.1774 20.0596 80.2856 19.2305 79.139 19.2305C77.9925 19.2305 77.1007 20.0596 77.1007 21.399Z" fill="#292926"/>
<path d="M81.878 19.3155H82.8335V19.8683C83.152 19.4006 83.5766 19.2092 84.1075 19.2092C85.0205 19.2092 85.4239 19.8896 85.4239 20.8038V23.3975H84.4047V21.2077C84.4047 20.6975 84.4047 20.0384 83.7465 20.0384C83.0246 20.0384 82.8547 20.8675 82.8547 21.399V23.3975H81.8356V19.2943L81.878 19.3155Z" fill="#292926"/>
<path d="M87.1437 22.2282C87.1437 21.5904 87.8231 21.5266 88.269 21.5266H88.7149C88.7149 21.8455 88.6724 22.1432 88.5026 22.377C88.354 22.6109 88.0992 22.7384 87.8019 22.7384C87.4409 22.7384 87.1649 22.5896 87.1649 22.2282H87.1437ZM86.6341 20.4423C86.9738 20.1659 87.3985 19.9959 87.8231 19.9959C88.4177 19.9959 88.6937 20.2297 88.6937 20.8675H88.1416C87.717 20.8675 87.2286 20.9101 86.8464 21.1014C86.4643 21.2927 86.1882 21.6542 86.1882 22.2707C86.1882 23.0573 86.8677 23.4826 87.5471 23.4826C88.0142 23.4826 88.5238 23.2274 88.7361 22.781C88.7361 22.9085 88.7361 23.1849 88.7786 23.3975H89.6704C89.6491 23.0786 89.6279 22.8022 89.6279 22.4833C89.6279 22.1857 89.6279 21.8668 89.6279 21.4628V20.9313C89.6279 19.7195 89.1396 19.2092 87.9505 19.2092C87.5259 19.2092 86.9951 19.3368 86.5916 19.5281V20.4423H86.6341Z" fill="#292926"/>
<path d="M90.5621 17.4446H91.5813V23.4187H90.5621V17.4446Z" fill="#292926"/>
<path d="M95.6367 18.7414H95.9764C96.5072 18.7414 97.1017 18.8052 97.1017 19.4642C97.1017 20.1233 96.5072 20.2296 95.9764 20.2296H95.6367V18.7414ZM94.5751 23.4187H95.6367V21.1226H95.9764C96.4223 21.1226 96.5497 21.2926 96.7196 21.6966L97.3565 23.4399H98.5243L97.675 21.2714C97.5689 21.0163 97.399 20.7186 97.123 20.6973C97.8024 20.591 98.2058 20.0383 98.2058 19.4005C98.2058 17.8485 96.847 17.891 95.7216 17.891H94.5751V23.4399V23.4187Z" fill="#292926"/>
<path d="M99.8407 20.9738C99.8832 20.421 100.18 20.0171 100.732 20.0171C101.285 20.0171 101.518 20.4636 101.561 20.9738H99.8407ZM102.24 22.3345C101.858 22.5471 101.433 22.7384 100.945 22.7384C100.329 22.7384 99.8832 22.3557 99.8407 21.6967H102.537C102.537 20.2722 102.134 19.2305 100.69 19.2305C99.4798 19.2305 98.8853 20.2084 98.8853 21.399C98.8853 22.7384 99.6284 23.5251 100.924 23.5251C101.476 23.5251 101.879 23.4188 102.261 23.2062V22.3345H102.24Z" fill="#292926"/>
<path d="M105.552 20.1872C105.234 20.0809 105.021 20.0171 104.639 20.0171C104.363 20.0171 104.045 20.1234 104.045 20.4636C104.045 21.1226 105.807 20.6974 105.807 22.1857C105.807 23.1424 105 23.5251 104.172 23.5251C103.79 23.5251 103.387 23.4613 103.026 23.355L103.089 22.4833C103.408 22.6534 103.748 22.7597 104.087 22.7597C104.342 22.7597 104.745 22.6534 104.745 22.2494C104.745 21.4415 102.983 21.9943 102.983 20.5061C102.983 19.6132 103.705 19.2305 104.512 19.2305C104.979 19.2305 105.297 19.3155 105.616 19.3793L105.552 20.1872Z" fill="#292926"/>
<path d="M107.23 20.9738C107.272 20.421 107.569 20.0171 108.121 20.0171C108.673 20.0171 108.907 20.4636 108.949 20.9738H107.23ZM109.629 22.3345C109.247 22.5471 108.822 22.7384 108.334 22.7384C107.718 22.7384 107.272 22.3557 107.23 21.6967H109.926C109.926 20.2722 109.523 19.2305 108.079 19.2305C106.869 19.2305 106.274 20.2084 106.274 21.399C106.274 22.7384 107.017 23.5251 108.312 23.5251C108.865 23.5251 109.268 23.4188 109.65 23.2062V22.3345H109.629Z" fill="#292926"/>
<path d="M111.349 22.2282C111.349 21.5904 112.028 21.5266 112.474 21.5266H112.92C112.92 21.8455 112.878 22.1432 112.708 22.377C112.559 22.6109 112.304 22.7384 112.007 22.7384C111.646 22.7384 111.37 22.5896 111.37 22.2282H111.349ZM110.839 20.4423C111.179 20.1659 111.604 19.9959 112.05 19.9959C112.644 19.9959 112.92 20.2297 112.92 20.8675H112.368C111.943 20.8675 111.455 20.9101 111.052 21.1014C110.669 21.2927 110.393 21.6542 110.393 22.2707C110.393 23.0573 111.073 23.4826 111.752 23.4826C112.219 23.4826 112.708 23.2274 112.941 22.781C112.941 22.9085 112.941 23.1849 112.984 23.3975H113.876C113.876 23.0786 113.833 22.8022 113.833 22.4833C113.833 22.1857 113.833 21.8668 113.833 21.4628V20.9313C113.833 19.7195 113.345 19.2092 112.156 19.2092C111.731 19.2092 111.2 19.3368 110.797 19.5281V20.4423H110.839Z" fill="#292926"/>
<path d="M114.789 19.3155H115.68V20.251C115.723 19.8683 116.147 19.2305 116.742 19.2305C116.848 19.2305 116.954 19.2305 117.06 19.2517V20.336C117.06 20.336 116.784 20.251 116.615 20.251C115.786 20.251 115.786 21.3352 115.786 21.9305V23.44H114.767V19.3368L114.789 19.3155Z" fill="#292926"/>
<path d="M120.012 20.2084C119.821 20.1234 119.63 20.0596 119.332 20.0596C118.717 20.0596 118.313 20.5911 118.313 21.3565C118.313 22.1219 118.653 22.6959 119.353 22.6959C119.651 22.6959 119.948 22.5896 120.139 22.5046L120.182 23.3975C119.884 23.4825 119.587 23.5251 119.162 23.5251C117.888 23.5251 117.251 22.6109 117.251 21.3565C117.251 20.1659 117.91 19.2305 119.12 19.2305C119.523 19.2305 119.821 19.273 120.097 19.358L120.012 20.2084Z" fill="#292926"/>
<path d="M120.755 17.4446H121.774V19.8683C122.029 19.4643 122.475 19.2092 123.006 19.2092C123.919 19.2092 124.322 19.8895 124.322 20.8037V23.3975H123.303V21.2077C123.303 20.6974 123.303 20.0384 122.645 20.0384C121.923 20.0384 121.753 20.8675 121.753 21.399V23.3975H120.734V17.4233L120.755 17.4446Z" fill="#292926"/>
<path d="M63.0659 26.6079H65.996V27.4796H64.1275V28.8403H65.9111V29.7119H64.1275V32.1356H63.0659V26.5867V26.6079Z" fill="#292926"/>
<path d="M67.4823 30.0095C67.4823 29.3929 67.8008 28.7977 68.459 28.7977C69.1172 28.7977 69.4357 29.3929 69.4357 30.0095C69.4357 30.6898 69.2234 31.4339 68.459 31.4339C67.6946 31.4339 67.4823 30.6898 67.4823 30.0095ZM66.4207 30.1371C66.4207 31.3064 67.1638 32.2631 68.459 32.2631C69.7542 32.2631 70.4973 31.3276 70.4973 30.1371C70.4973 28.7764 69.6055 27.9685 68.459 27.9685C67.3124 27.9685 66.4207 28.7977 66.4207 30.1371Z" fill="#292926"/>
<path d="M74.7864 32.1567H73.831V31.6039C73.5125 32.0079 73.0878 32.263 72.557 32.263C71.644 32.263 71.2406 31.5827 71.2406 30.6472V28.0535H72.2598V30.2433C72.2598 30.7535 72.2598 31.4126 72.918 31.4126C73.6399 31.4126 73.8097 30.5834 73.8097 30.0519V28.0535H74.8289V32.1567H74.7864Z" fill="#292926"/>
<path d="M75.7418 28.0534H76.6973V28.6062C77.0158 28.1385 77.4404 27.9471 77.9712 27.9471C78.8842 27.9471 79.2876 28.6275 79.2876 29.5629V32.1567H78.2685V29.9669C78.2685 29.4566 78.2685 28.7976 77.6103 28.7976C76.8884 28.7976 76.7185 29.6267 76.7185 30.1582V32.1567H75.6993V28.0534H75.7418Z" fill="#292926"/>
<path d="M81.0925 30.0945C81.0925 29.5418 81.2836 28.7976 81.9206 28.7976C82.5576 28.7976 82.8336 29.5205 82.8336 30.0945C82.8336 30.6685 82.6213 31.4127 81.9418 31.4127C81.2624 31.4127 81.0925 30.6473 81.0925 30.0945ZM82.876 32.1568H83.8527V26.1826H82.8336V28.5213C82.5363 28.1386 82.1754 27.9472 81.6658 27.9472C80.4768 27.9472 80.0309 28.9465 80.0309 30.0733C80.0309 31.2001 80.4768 32.2206 81.6658 32.2206C82.1329 32.2206 82.5576 32.0505 82.8548 31.6678V32.1355L82.876 32.1568Z" fill="#292926"/>
<path d="M85.5299 30.9661C85.5299 30.3283 86.2094 30.2645 86.6553 30.2645H87.1011C87.1011 30.5834 87.0587 30.8811 86.8888 31.1149C86.7402 31.3275 86.4854 31.4764 86.1881 31.4764C85.8272 31.4764 85.5512 31.3275 85.5512 30.9661H85.5299ZM85.0204 29.1802C85.3601 28.9039 85.7847 28.7338 86.2306 28.7338C86.8251 28.7338 87.1011 28.9464 87.1011 29.6055H86.5491C86.1244 29.6055 85.6361 29.648 85.2327 29.8393C84.8505 30.0307 84.5745 30.3921 84.5745 31.0086C84.5745 31.7953 85.2539 32.2205 85.9334 32.2205C86.4005 32.2205 86.8888 31.9653 87.1436 31.5189C87.1436 31.6464 87.1436 31.9228 87.1861 32.1354H88.0778C88.0566 31.8165 88.0354 31.5401 88.0354 31.2212C88.0354 30.9236 88.0354 30.6047 88.0354 30.2007V29.6692C88.0354 28.4574 87.547 27.9471 86.358 27.9471C85.9333 27.9471 85.4025 28.0747 84.9991 28.266V29.1802H85.0204Z" fill="#292926"/>
<path d="M89.2669 28.8401H88.5238V28.0535H89.2669V27.2456L90.2861 26.9054V28.0747H91.1779V28.8613H90.2861V30.7748C90.2861 31.1149 90.371 31.4551 90.7532 31.4551C90.9443 31.4551 91.1142 31.4126 91.2203 31.3488V32.1992C91.0505 32.263 90.7957 32.3055 90.4984 32.3055C89.7128 32.3055 89.2669 31.7953 89.2669 30.9874V28.9039V28.8401Z" fill="#292926"/>
<path d="M91.8148 28.0535H92.834V32.1568H91.8148V28.0535ZM91.8148 26.2889H92.834V27.3094H91.8148V26.2889Z" fill="#292926"/>
<path d="M94.6175 30.0095C94.6175 29.3929 94.936 28.7977 95.5942 28.7977C96.2524 28.7977 96.5709 29.3929 96.5709 30.0095C96.5709 30.6898 96.3586 31.4339 95.5942 31.4339C94.8299 31.4339 94.6175 30.6898 94.6175 30.0095ZM93.5559 30.1371C93.5559 31.3064 94.2991 32.2631 95.5942 32.2631C96.8894 32.2631 97.6326 31.3276 97.6326 30.1371C97.6326 28.7764 96.7408 27.9685 95.5942 27.9685C94.4477 27.9685 93.5559 28.7977 93.5559 30.1371Z" fill="#292926"/>
<path d="M98.3545 28.0534H99.3099V28.6062C99.6284 28.1385 100.053 27.9471 100.584 27.9471C101.497 27.9471 101.9 28.6275 101.9 29.5629V32.1567H100.881V29.9669C100.881 29.4566 100.881 28.7976 100.223 28.7976C99.501 28.7976 99.3312 29.6267 99.3312 30.1582V32.1567H98.312V28.0534H98.3545Z" fill="#292926"/>
<path d="M105.722 30.0095C105.722 29.3929 106.041 28.7977 106.699 28.7977C107.357 28.7977 107.676 29.3929 107.676 30.0095C107.676 30.6898 107.463 31.4339 106.699 31.4339C105.934 31.4339 105.722 30.6898 105.722 30.0095ZM104.661 30.1371C104.661 31.3064 105.404 32.2631 106.699 32.2631C107.994 32.2631 108.737 31.3276 108.737 30.1371C108.737 28.7764 107.845 27.9685 106.699 27.9685C105.552 27.9685 104.661 28.7977 104.661 30.1371Z" fill="#292926"/>
<path d="M109.82 28.8401H109.077V28.0535H109.82V27.4795C109.82 26.6716 110.266 26.0975 111.052 26.0975C111.306 26.0975 111.604 26.1401 111.795 26.1826L111.71 27.0755C111.71 27.0755 111.497 26.9267 111.264 26.9267C110.924 26.9267 110.818 27.2456 110.818 27.5645V28.0747H111.71V28.8614H110.818V32.178H109.799V28.8614L109.82 28.8401Z" fill="#292926"/>
<path d="M114.428 26.6077H115.489V28.9888L117.4 26.6077H118.695L116.53 29.2227L118.78 32.1566H117.4L115.51 29.5841V32.1566H114.449V26.6077H114.428Z" fill="#292926"/>
<path d="M120.097 30.0095C120.097 29.3929 120.415 28.7977 121.073 28.7977C121.731 28.7977 122.05 29.3929 122.05 30.0095C122.05 30.6898 121.838 31.4339 121.073 31.4339C120.309 31.4339 120.097 30.6898 120.097 30.0095ZM119.035 30.1371C119.035 31.3064 119.778 32.2631 121.073 32.2631C122.368 32.2631 123.112 31.3276 123.112 30.1371C123.112 28.7764 122.22 27.9685 121.073 27.9685C119.927 27.9685 119.035 28.7977 119.035 30.1371Z" fill="#292926"/>
<path d="M123.855 28.0535H124.746V28.989C124.789 28.6063 125.214 27.9685 125.808 27.9685C125.914 27.9685 126.02 27.9685 126.127 28.011V29.074C126.127 29.074 125.851 28.989 125.681 28.989C124.853 28.989 124.853 30.0733 124.853 30.6686V32.1781H123.833V28.0748L123.855 28.0535Z" fill="#292926"/>
<path d="M127.273 29.7118C127.316 29.1591 127.613 28.7551 128.165 28.7551C128.717 28.7551 128.951 29.2016 128.993 29.7118H127.273ZM129.673 31.0725C129.29 31.3064 128.866 31.4977 128.377 31.4977C127.762 31.4977 127.316 31.115 127.273 30.4559H129.97C129.97 29.0315 129.566 27.9897 128.123 27.9897C126.912 27.9897 126.318 28.9677 126.318 30.1583C126.318 31.4977 127.061 32.2843 128.356 32.2843C128.908 32.2843 129.333 32.178 129.694 31.9654V31.0938L129.673 31.0725Z" fill="#292926"/>
<path d="M131.392 30.9661C131.392 30.3283 132.072 30.2645 132.518 30.2645H132.964C132.964 30.5834 132.921 30.8811 132.751 31.1149C132.603 31.3275 132.348 31.4764 132.051 31.4764C131.69 31.4764 131.414 31.3275 131.414 30.9661H131.392ZM130.883 29.1802C131.222 28.9039 131.647 28.7338 132.072 28.7338C132.666 28.7338 132.942 28.9464 132.942 29.6055H132.39C131.966 29.6055 131.477 29.648 131.074 29.8393C130.692 30.0307 130.416 30.3921 130.416 31.0086C130.416 31.7953 131.095 32.2205 131.775 32.2205C132.242 32.2205 132.751 31.9653 132.985 31.5189C132.985 31.6464 132.985 31.9228 133.027 32.1354H133.919C133.898 31.8165 133.877 31.5401 133.877 31.2212C133.877 30.9236 133.877 30.6047 133.877 30.2007V29.6692C133.877 28.4574 133.388 27.9471 132.199 27.9471C131.775 27.9471 131.244 28.0747 130.84 28.266V29.1802H130.883Z" fill="#292926"/>
<path d="M40.793 14.5745C40.8143 14.1067 40.8567 13.1925 40.9204 12.1508C39.9437 11.2153 38.8821 10.3224 37.6506 9.36567C37.2684 9.08928 37.0986 8.72786 37.1198 8.26013L37.3321 3.9868C28.9028 -0.775515 21.3865 0.117419 17.968 3.47655C14.9106 6.49552 14.1886 11.6618 16.3544 16.254C16.5879 16.7643 16.8215 16.7005 16.7153 16.1477C15.9934 12.9587 16.3968 9.8334 18.5838 7.62232C22.7029 3.45529 32.5548 6.92073 40.6019 14.6595C40.7293 14.7658 40.8143 14.702 40.8143 14.5957L40.793 14.5745Z" fill="#292926"/>
<path d="M48.7552 9.40818C46.8018 6.9845 43.0012 3.00882 38.6697 0.0748894C38.4574 -0.0739329 38.33 0.0111084 38.33 0.223712L37.9266 8.30264C37.9266 8.5365 37.969 8.60029 38.1177 8.72785C39.7101 9.93969 41.2389 11.2578 42.7251 12.8311C49.1374 19.5494 54.5941 30.7961 49.4771 35.8986C45.5278 39.853 36.7588 38.6837 28.3295 32.7308C27.8623 32.4119 27.7137 32.6457 28.0322 32.9859C36.8437 41.0648 46.6532 42.8294 52.2373 38.7049C59.1167 33.6237 57.3968 20.2084 48.734 9.42944L48.7552 9.40818Z" fill="#292926"/>
<path d="M33.9349 17.3594C33.0007 17.3594 32.1089 17.8484 32.1089 19.2728V32.029H34.8691C35.7397 32.029 36.1006 31.6463 36.1006 30.8597V26.7777H42.4491C43.3197 26.7777 43.6806 26.395 43.6806 25.5871V23.5249H36.1006V20.5909H43.0437C43.9142 20.5909 44.2751 20.2083 44.2751 19.4216V17.3806H33.9349V17.3594Z" fill="#292926"/>
<path d="M14.5284 30.1158V17.3596H11.7894C10.9188 17.3596 10.5579 17.7423 10.5579 18.5289V25.5023L4.44291 17.3596H2.65937C1.72514 17.3596 0.833374 17.8486 0.833374 19.273V32.0293H3.57237C4.44291 32.0293 4.80386 31.6466 4.80386 30.8599V23.8865L11.0462 32.0293H12.6811C13.6154 32.0293 14.5071 31.5403 14.5071 30.1158H14.5284Z" fill="#292926"/>
<path d="M28.6267 32.0078H32.1513C29.5397 29.329 28.1171 27.7557 27.098 26.4588C29.2212 25.4383 30.1767 23.7162 30.1767 22.0792C30.1767 19.3791 28.4993 17.487 25.3569 17.3381C25.2083 17.3381 19.518 17.3381 16.8639 17.3381V31.9865H19.6029C20.4734 31.9865 20.8344 31.6038 20.8344 30.8172V24.673C22.6391 27.1392 24.3165 29.2652 26.185 31.0723C26.7795 31.6676 27.8836 31.9865 28.6267 31.9865V32.0078ZM23.9768 23.8863H20.8344V20.3358H24.083C25.1871 20.3358 26.0364 21.0587 26.0364 22.1005C26.0364 23.291 25.0809 23.8863 23.998 23.8863H23.9768Z" fill="#292926"/>
</svg>
