<svg width="660" height="124" viewBox="0 0 660 124" fill="none" xmlns="http://www.w3.org/2000/svg">
<path d="M15.1667 100.93C10.5 100.93 6.80558 100.161 4.08335 98.6233C1.36112 97.0853 0 94.2977 0 90.2605C0 89.5876 0.0972226 88.4822 0.291668 86.9442L1.60417 79.0139C2.77085 72.1891 6.41669 68.7767 12.5417 68.7767C15.0695 68.7767 17.014 69.2574 18.3751 70.2186C19.7362 71.1798 21.1459 72.6217 22.6043 74.5442C24.1598 76.5628 25.6668 78.1008 27.1251 79.1581C28.6807 80.2155 30.8682 80.7442 33.6876 80.7442H42.5835C45.5002 80.7442 47.8335 79.7829 49.5835 77.8605C51.4308 75.938 52.3544 73.6791 52.3544 71.0837C52.3544 69.1612 51.8197 67.3829 50.7502 65.7488C49.6808 64.0186 48.1252 62.6729 46.0835 61.7116L32.2293 55.0791C26.6876 52.3876 22.4584 48.7829 19.5417 44.2651C16.6251 39.6512 15.1667 34.7008 15.1667 29.414C15.1667 24.3194 16.5278 19.5612 19.2501 15.1395C21.9723 10.6217 26.0071 6.969 31.3543 4.1814C36.7015 1.3938 43.0696 0 50.4585 0H72.3336C77.1948 0 81.0837 0.817055 84.0004 2.45117C86.917 3.98915 88.3754 6.92093 88.3754 11.2465C88.3754 12.4 88.3268 13.3132 88.2295 13.986L87.3545 20.4744C86.8684 23.9349 85.8476 26.5302 84.292 28.2605C82.8337 29.8946 80.549 30.7116 77.4378 30.7116C75.0073 30.7116 73.1114 30.3271 71.7503 29.5581C70.4864 28.693 69.0767 27.3953 67.5211 25.6651C65.9656 23.8388 64.41 22.493 62.8544 21.6279C61.3961 20.6667 59.3058 20.1861 56.5836 20.1861H48.8544C45.9377 20.1861 43.6044 21.0031 41.8543 22.6372C40.1043 24.2713 39.2293 26.2419 39.2293 28.5488C39.2293 30.2791 39.7641 31.9612 40.8335 33.5953C42.0002 35.1333 43.7016 36.4791 45.9377 37.6326L60.5211 44.6977C65.6739 47.1969 69.5142 50.5132 72.042 54.6465C74.5698 58.7798 75.8336 63.538 75.8336 68.9209C75.8336 74.7845 74.4725 80.1674 71.7503 85.0698C69.1253 89.9721 65.3336 93.8651 60.3753 96.7488C55.4169 99.5364 49.5835 100.93 42.8752 100.93H15.1667Z" fill="#111010"/>
<path d="M96.0966 101.651C91.8188 101.651 88.2216 100.45 85.3049 98.0465C82.3882 95.6434 80.9299 92.0868 80.9299 87.3767C80.9299 85.6465 81.1243 84.0124 81.5132 82.4744C81.9021 80.9364 82.4854 79.0139 83.2632 76.707C83.5549 75.7457 83.8465 74.7845 84.1382 73.8233C84.5271 72.862 84.8674 71.8046 85.159 70.6512L88.9507 56.5209C89.2424 55.3674 89.3882 54.1178 89.3882 52.7721C89.4855 51.3302 89.5341 49.9845 89.5341 48.7349V46.8605C89.5341 43.5923 90.6035 40.8527 92.7424 38.6419C94.8813 36.431 97.7008 35.3256 101.201 35.3256H110.388C113.694 35.3256 116.222 36.0946 117.972 37.6326C119.819 39.0744 120.743 41.1411 120.743 43.8326C120.743 45.9473 120.256 47.6295 119.284 48.8791C118.312 50.1287 116.854 51.4264 114.909 52.7721C113.159 54.0217 111.798 55.1752 110.826 56.2326C109.854 57.2899 109.173 58.6357 108.784 60.2698L106.159 70.507C105.867 71.6605 105.722 72.814 105.722 73.9674C105.722 76.3705 106.451 78.3411 107.909 79.8791C109.465 81.3209 111.604 82.0419 114.326 82.0419C119.673 82.0419 123.173 78.9178 124.826 72.6698L129.201 56.5209C130.076 53.445 130.513 50.0806 130.513 46.4279C130.513 43.1597 131.729 40.3721 134.159 38.0651C136.59 35.7581 139.604 34.6047 143.201 34.6047C146.409 34.6047 149.083 35.5659 151.222 37.4884C153.458 39.4109 154.576 42.0543 154.576 45.4186C154.576 46.7643 154.382 47.9659 153.993 49.0233C153.701 50.0806 153.166 51.2822 152.388 52.6279C150.833 55.8 149.715 58.6357 149.034 61.1349L145.972 72.6698C145.583 73.9194 145.388 75.217 145.388 76.5628C145.388 78.0046 145.583 79.2543 145.972 80.3116C146.458 81.2729 147.138 82.5225 148.013 84.0605C148.791 85.5023 149.375 86.7039 149.763 87.6651C150.152 88.5302 150.347 89.5876 150.347 90.8372C150.347 93.6248 149.326 96.0279 147.284 98.0465C145.243 99.969 142.229 100.93 138.243 100.93H128.034C125.798 100.93 123.999 100.498 122.638 99.6326C121.374 98.7674 120.062 97.5659 118.701 96.0279C117.923 95.0667 117.194 94.3457 116.513 93.8651C115.93 93.3845 115.298 93.1442 114.618 93.1442C113.937 93.1442 113.159 93.4325 112.284 94.0093C111.409 94.586 110.583 95.2109 109.805 95.8837C107.666 97.7101 105.624 99.1519 103.68 100.209C101.736 101.171 99.2077 101.651 96.0966 101.651Z" fill="#111010"/>
<path d="M170.841 101.651C167.633 101.651 164.862 100.69 162.529 98.7674C160.292 96.845 159.174 94.2015 159.174 90.8372C159.174 89.5876 159.32 88.4822 159.612 87.5209C160.001 86.5597 160.535 85.3581 161.216 83.9163C162.772 81.0326 163.987 77.8605 164.862 74.4L167.633 63.586C167.924 62.1442 168.07 60.8946 168.07 59.8372C168.07 58.3953 167.876 57.1938 167.487 56.2326C167.098 55.1752 166.466 53.8295 165.591 52.1953C164.813 50.7535 164.23 49.6 163.841 48.7349C163.452 47.7736 163.258 46.6682 163.258 45.4186C163.258 42.631 164.279 40.276 166.32 38.3535C168.362 36.3349 171.376 35.3256 175.362 35.3256H185.57C187.709 35.3256 189.411 35.7101 190.674 36.4791C191.938 37.2481 193.251 38.3535 194.612 39.7953C195.39 40.6605 196.07 41.3333 196.654 41.814C197.334 42.1985 198.063 42.3907 198.841 42.3907C199.619 42.3907 200.397 42.1985 201.174 41.814C202.049 41.3333 203.119 40.6605 204.383 39.7953C206.425 38.2574 208.515 37.0078 210.654 36.0465C212.793 35.0853 215.369 34.6047 218.383 34.6047C222.758 34.6047 226.404 35.7581 229.32 38.0651C232.237 40.3721 233.695 43.8806 233.695 48.5907C233.695 50.2248 233.501 51.7628 233.112 53.2046C232.82 54.5504 232.286 56.2806 231.508 58.3953C230.536 61.0868 229.855 63.2496 229.466 64.8837L225.529 79.7349C225.237 80.8884 225.043 82.186 224.945 83.6279C224.945 84.9736 224.945 86.2713 224.945 87.5209V89.3953C224.945 92.6636 223.876 95.4031 221.737 97.6139C219.598 99.8248 216.779 100.93 213.279 100.93H204.529C200.737 100.93 197.723 100.113 195.487 98.4791C193.348 96.845 192.279 94.538 192.279 91.5581C192.279 89.155 192.862 87.2806 194.029 85.9349C195.195 84.493 197.043 82.907 199.57 81.1767C201.612 79.7349 203.168 78.4853 204.237 77.4279C205.306 76.3705 206.036 75.0248 206.425 73.3907L208.466 65.0279C208.758 63.8744 208.904 62.769 208.904 61.7116C208.904 59.2124 208.126 57.1938 206.57 55.6558C205.112 54.1178 203.022 53.3488 200.3 53.3488C197.48 53.3488 195.049 54.262 193.008 56.0884C191.063 57.8186 189.654 60.3178 188.779 63.586L184.549 79.7349C183.674 83.1953 183.237 86.5597 183.237 89.8279C183.237 93.0961 182.022 95.8837 179.591 98.1907C177.258 100.498 174.341 101.651 170.841 101.651Z" fill="#111010"/>
<path d="M249.027 101.651C245.819 101.651 243.048 100.69 240.715 98.7674C238.479 96.845 237.361 94.2015 237.361 90.8372C237.361 89.5876 237.507 88.4822 237.798 87.5209C238.187 86.5597 238.722 85.3581 239.402 83.9163C240.958 81.0326 242.173 77.8605 243.048 74.4L245.819 63.586C246.111 62.1442 246.257 60.8946 246.257 59.8372C246.257 58.3953 246.062 57.1938 245.673 56.2326C245.284 55.1752 244.652 53.8295 243.777 52.1953C243 50.7535 242.416 49.6 242.027 48.7349C241.638 47.7736 241.444 46.6682 241.444 45.4186C241.444 42.631 242.465 40.276 244.507 38.3535C246.548 36.3349 249.562 35.3256 253.548 35.3256H263.757C265.896 35.3256 267.597 35.7101 268.861 36.4791C270.125 37.2481 271.437 38.3535 272.798 39.7953C273.576 40.6605 274.257 41.3333 274.84 41.814C275.521 42.1985 276.25 42.3907 277.028 42.3907C277.805 42.3907 278.583 42.1985 279.361 41.814C280.236 41.3333 281.305 40.6605 282.569 39.7953C284.611 38.2574 286.701 37.0078 288.84 36.0465C290.979 35.0853 293.555 34.6047 296.569 34.6047C300.944 34.6047 304.59 35.7581 307.507 38.0651C310.424 40.3721 311.882 43.8806 311.882 48.5907C311.882 50.2248 311.687 51.7628 311.299 53.2046C311.007 54.5504 310.472 56.2806 309.694 58.3953C308.722 61.0868 308.042 63.2496 307.653 64.8837L303.715 79.7349C303.423 80.8884 303.229 82.186 303.132 83.6279C303.132 84.9736 303.132 86.2713 303.132 87.5209V89.3953C303.132 92.6636 302.062 95.4031 299.923 97.6139C297.785 99.8248 294.965 100.93 291.465 100.93H282.715C278.923 100.93 275.909 100.113 273.673 98.4791C271.534 96.845 270.465 94.538 270.465 91.5581C270.465 89.155 271.048 87.2806 272.215 85.9349C273.382 84.493 275.229 82.907 277.757 81.1767C279.798 79.7349 281.354 78.4853 282.423 77.4279C283.493 76.3705 284.222 75.0248 284.611 73.3907L286.653 65.0279C286.944 63.8744 287.09 62.769 287.09 61.7116C287.09 59.2124 286.312 57.1938 284.757 55.6558C283.298 54.1178 281.208 53.3488 278.486 53.3488C275.666 53.3488 273.236 54.262 271.194 56.0884C269.25 57.8186 267.84 60.3178 266.965 63.586L262.736 79.7349C261.861 83.1953 261.423 86.5597 261.423 89.8279C261.423 93.0961 260.208 95.8837 257.777 98.1907C255.444 100.498 252.527 101.651 249.027 101.651Z" fill="#111010"/>
<path d="M325.443 124C321.749 124 318.735 122.943 316.402 120.828C314.068 118.809 312.902 116.022 312.902 112.465C312.902 109.485 313.874 106.794 315.818 104.391C317.763 102.084 320.874 100.402 325.152 99.3442L329.381 98.3349C335.117 96.9892 337.985 94.0574 337.985 89.5395C337.985 86.9442 337.11 84.0605 335.36 80.8884L319.027 50.4651C317.763 48.062 317.131 45.8031 317.131 43.6884C317.131 41.1891 317.957 39.1705 319.61 37.6326C321.263 36.0946 323.499 35.3256 326.318 35.3256H338.131C341.242 35.3256 343.527 36.1426 344.985 37.7767C346.541 39.3147 347.318 41.1891 347.318 43.4C347.318 44.4574 347.075 45.5628 346.589 46.7163C346.2 47.8698 345.763 48.9752 345.277 50.0326C344.499 51.5705 343.916 52.8682 343.527 53.9256C343.235 54.9829 343.089 56.1364 343.089 57.386C343.089 59.8853 343.867 62 345.423 63.7302C347.075 65.3643 349.263 66.1814 351.985 66.1814C354.707 66.1814 356.846 65.3643 358.402 63.7302C360.055 62 360.881 59.8853 360.881 57.386C360.881 56.1364 360.686 54.9829 360.298 53.9256C360.006 52.8682 359.471 51.5705 358.693 50.0326C358.207 48.9752 357.721 47.8698 357.235 46.7163C356.846 45.5628 356.652 44.4574 356.652 43.4C356.652 41.1891 357.381 39.3147 358.839 37.7767C360.395 36.1426 362.777 35.3256 365.985 35.3256H377.798C380.423 35.3256 382.61 35.9984 384.36 37.3442C386.207 38.6899 387.131 40.5643 387.131 42.9674C387.131 45.1783 386.207 47.6775 384.36 50.4651L345.277 108.716C341.777 114.003 338.568 117.848 335.652 120.251C332.735 122.75 329.332 124 325.443 124Z" fill="#111010"/>
<path d="M422.574 100.93C417.616 100.93 414.165 99.9209 412.22 97.9023C410.373 95.7876 409.449 93.3364 409.449 90.5488C409.449 88.5302 409.838 86.7519 410.616 85.214C411.394 83.5798 412.609 81.6093 414.262 79.3023C415.623 77.3798 416.741 75.6496 417.616 74.1116C418.491 72.5736 419.172 70.8915 419.658 69.0651L429.283 34.0279C430.352 30.2791 430.887 26.8186 430.887 23.6465C430.887 21.8202 430.595 19.7535 430.012 17.4465C429.623 15.3318 429.429 13.7457 429.429 12.6884C429.429 9.22791 430.595 6.24807 432.929 3.74884C435.262 1.24961 438.956 0 444.012 0H468.075C481.005 0 490.727 3.02791 497.241 9.08372C503.852 15.1395 507.158 24.9442 507.158 38.4977C507.158 45.9953 505.797 54.4543 503.075 63.8744C500.45 73.1984 494.957 81.7054 486.595 89.3953C478.332 97.0853 466.519 100.93 451.158 100.93H422.574ZM453.929 79.3023C461.901 79.3023 468.172 77.2837 472.741 73.2465C477.311 69.1132 480.422 64.2109 482.075 58.5395C483.727 52.8682 484.554 47.1969 484.554 41.5256C484.554 34.7969 482.95 29.7984 479.741 26.5302C476.63 23.262 472.255 21.6279 466.616 21.6279H458.741C457.088 21.6279 455.776 22.0605 454.804 22.9256C453.831 23.7907 453.102 25.2326 452.616 27.2512L441.824 69.2093C441.144 71.8046 440.804 73.5349 440.804 74.4C440.804 75.938 441.29 77.1395 442.262 78.0046C443.331 78.8698 444.838 79.3023 446.783 79.3023H453.929Z" fill="#111010"/>
<path d="M534.611 101.651C530.236 101.651 526.007 100.402 521.924 97.9023C517.938 95.4031 514.681 91.8465 512.153 87.2326C509.722 82.5225 508.507 77.1395 508.507 71.0837C508.507 64.8357 509.82 59.0202 512.445 53.6372C515.167 48.2543 518.958 43.9767 523.82 40.8046C528.778 37.6326 534.465 36.0465 540.882 36.0465C544.091 36.0465 546.716 36.431 548.757 37.2C550.896 37.8729 553.084 38.786 555.32 39.9395C557.264 40.9969 558.674 41.5256 559.549 41.5256C560.521 41.5256 561.348 41.1891 562.028 40.5163C562.709 39.7473 563.535 38.6419 564.507 37.2C565.868 34.7969 567.327 32.9705 568.882 31.7209C570.438 30.3752 572.674 29.7023 575.591 29.7023C578.896 29.7023 581.473 30.6155 583.32 32.4419C585.264 34.2682 586.237 36.5752 586.237 39.3628C586.237 40.5163 586.091 41.5256 585.799 42.3907C585.507 43.1597 584.973 44.3132 584.195 45.8512C583.028 48.062 582.396 49.3597 582.299 49.7442C576.466 63.0093 573.549 72.862 573.549 79.3023C573.549 81.2248 573.938 83.3395 574.716 85.6465C575.493 88.1457 575.882 90.1163 575.882 91.5581C575.882 94.4418 575.007 96.845 573.257 98.7674C571.507 100.69 568.785 101.651 565.091 101.651C562.368 101.651 560.375 101.219 559.111 100.353C557.945 99.3922 556.827 98.0465 555.757 96.3163C555.077 95.2589 554.493 94.4899 554.007 94.0093C553.618 93.5287 552.986 93.2884 552.111 93.2884C551.236 93.2884 550.459 93.5287 549.778 94.0093C549.195 94.3938 548.32 95.1147 547.153 96.1721C545.306 97.9023 543.459 99.2481 541.611 100.209C539.861 101.171 537.528 101.651 534.611 101.651ZM543.507 81.0326C547.202 81.0326 550.313 79.831 552.841 77.4279C555.368 74.9287 556.632 71.8527 556.632 68.2C556.632 64.5473 555.368 61.5194 552.841 59.1163C550.313 56.6171 547.202 55.3674 543.507 55.3674C539.813 55.3674 536.702 56.6171 534.174 59.1163C531.743 61.5194 530.528 64.5473 530.528 68.2C530.528 71.7566 531.792 74.7845 534.32 77.2837C536.847 79.7829 539.91 81.0326 543.507 81.0326Z" fill="#111010"/>
<path d="M598.312 124C594.618 124 591.604 122.943 589.271 120.828C586.937 118.809 585.771 116.022 585.771 112.465C585.771 109.485 586.743 106.794 588.687 104.391C590.632 102.084 593.743 100.402 598.021 99.3442L602.25 98.3349C607.986 96.9892 610.854 94.0574 610.854 89.5395C610.854 86.9442 609.979 84.0605 608.229 80.8884L591.896 50.4651C590.632 48.062 590 45.8031 590 43.6884C590 41.1891 590.826 39.1705 592.479 37.6326C594.132 36.0946 596.368 35.3256 599.187 35.3256H611C614.111 35.3256 616.396 36.1426 617.854 37.7767C619.41 39.3147 620.187 41.1891 620.187 43.4C620.187 44.4574 619.944 45.5628 619.458 46.7163C619.069 47.8698 618.632 48.9752 618.146 50.0326C617.368 51.5705 616.785 52.8682 616.396 53.9256C616.104 54.9829 615.958 56.1364 615.958 57.386C615.958 59.8853 616.736 62 618.292 63.7302C619.944 65.3643 622.132 66.1814 624.854 66.1814C627.576 66.1814 629.715 65.3643 631.271 63.7302C632.923 62 633.75 59.8853 633.75 57.386C633.75 56.1364 633.555 54.9829 633.167 53.9256C632.875 52.8682 632.34 51.5705 631.562 50.0326C631.076 48.9752 630.59 47.8698 630.104 46.7163C629.715 45.5628 629.521 44.4574 629.521 43.4C629.521 41.1891 630.25 39.3147 631.708 37.7767C633.264 36.1426 635.646 35.3256 638.854 35.3256H650.667C653.292 35.3256 655.479 35.9984 657.229 37.3442C659.076 38.6899 660 40.5643 660 42.9674C660 45.1783 659.076 47.6775 657.229 50.4651L618.146 108.716C614.646 114.003 611.437 117.848 608.521 120.251C605.604 122.75 602.201 124 598.312 124Z" fill="#111010"/>
</svg>
